# xmcd CD database file
#
# Track frame offsets:
#	150
#	14078
#	21463
#	30552
#	43313
#	52099
#	60230
#	73255
#	84423
#	106451
#	114214
#	126432
#	138544
#
# Disc length: 2096 seconds
#
# Revision: 1
# Processed by: cddbd v1.5.1PL0 Copyright (c) Steve Scherf et al.
# Submitted via: CDex 1.60beta1-cs1
#
DISCID=be082e0d
DTITLE=rancho das cantarinhas de buarcos - brasil - rancho das cantarinhas de buarcos - brasil
DYEAR=1976
DGENRE=folclore
TTITLE0=vira da beira-mar
TTITLE1=ao som das cantigas
TTITLE2=arrufos de namorados
TTITLE3=cantares (marcha)
TTITLE4=cruz de cristo (fado)
TTITLE5=dia de festa
TTITLE6=marcha do vapor
TTITLE7=namorico
TTITLE8=que alegre é buarcos
TTITLE9=vira de santo antônio
TTITLE10=velas soltas
TTITLE11=velho mar
TTITLE12=alcachofras
EXTD=YEAR: 1976
EXTT0=
EXTT1=
EXTT2=
EXTT3=
EXTT4=
EXTT5=
EXTT6=
EXTT7=
EXTT8=
EXTT9=
EXTT10=
EXTT11=
EXTT12=
PLAYORDER=
